# xmcd CD database file
#
# Track frame offsets:
#	150
#	12250
#	24400
#	34262
#	51577
#	61577
#	73927
#	90510
#	104112
#	114737
#	130927
#	143527
#	156250
#	170540
#
# Disc length: 2476 seconds
#
# Revision: 1
# Processed by: cddbd v1.5.1PL2 Copyright (c) Steve Scherf et al.
# Submitted via: CDex 1.51
#
DISCID=c309aa0e
DTITLE=Sonny Terry And Brownie McGhee - California Blues - Disk 1
DYEAR=1900
DGENRE=Blues
TTITLE0=Got Fooled
TTITLE1=No Need Of Running
TTITLE2=I Feel So Good
TTITLE3=Thinkin' And Worrying
TTITLE4=I Love You Baby
TTITLE5=California Blues
TTITLE6=Walkin' And Lyin' Down
TTITLE7=First And Last Love
TTITLE8=Christine
TTITLE9=I Have Had My Fun
TTITLE10=Whoppin' And Squallin'
TTITLE11=Water Boy Cry
TTITLE12=Motherless Child
TTITLE13=Sportin' Life
EXTD=
EXTT0=
EXTT1=
EXTT2=
EXTT3=
EXTT4=
EXTT5=
EXTT6=
EXTT7=
EXTT8=
EXTT9=
EXTT10=
EXTT11=
EXTT12=
EXTT13=
PLAYORDER=
